<?xml version="1.0" encoding="utf-8"?>
<!-- Generator: Adobe Illustrator 17.0.2, SVG Export Plug-In . SVG Version: 6.00 Build 0)  -->
<!DOCTYPE svg PUBLIC "-//W3C//DTD SVG 1.1//EN" "http://www.w3.org/Graphics/SVG/1.1/DTD/svg11.dtd">
<svg version="1.1" xmlns="http://www.w3.org/2000/svg" xmlns:xlink="http://www.w3.org/1999/xlink" x="0px" y="0px"
	 width="103.688px" height="137.39px" viewBox="0 0 103.688 137.39" enable-background="new 0 0 103.688 137.39"
	 xml:space="preserve">
<g id="Layer_1" display="none">
	<polygon display="inline" fill="#F9F9F9" points="2138.807,2241.207 2267.819,2227.941 2267.819,2659.97 2138.807,2633.441 	"/>
	<polygon display="inline" fill="#F9F9F9" points="2411.126,2270.608 2480.831,2290.648 2411.126,2294.621 	"/>
	<polygon display="inline" fill="#F9F9F9" points="2284.696,2232.941 2284.696,2659.97 2319.592,2644.327 2319.592,2399.771 
		2381.155,2406.771 2381.155,2615.02 2402.857,2606.033 2402.857,2267.32 	"/>
	<polygon display="inline" fill="#F9F9F9" points="2138.807,2231.941 2267.819,2217.586 2119.517,2174.096 1990.502,2194.649 	"/>
	<polygon display="inline" fill="#F9F9F9" points="1990.502,2058.604 1990.502,2184.034 2119.517,2163.215 2119.517,2026.972 	"/>
	<polygon display="inline" fill="#637C7A" points="2381.155,2614.171 2381.155,2406.771 2467.664,2406.771 2467.664,2626.798 	"/>
	<polygon fill="#FFFFFF" points="2375.155,2618.171 2375.155,2410.771 2461.664,2410.771 2461.664,2630.798 	"/>
</g>
<g id="Layer_3">
	<polyline opacity="0.03" points="58.864,137.39 30.085,131.472 30.085,43.976 58.864,41.017 58.864,137.39 	"/>
	<polygon opacity="0.03" points="88.142,50.205 103.688,54.673 88.142,55.561 	"/>
	<polyline opacity="0.03" points="60.708,137.39 68.49,133.901 68.49,79.347 82.223,80.907 82.223,127.362 87.066,125.356 
		87.066,49.8 60.708,42.132 60.708,137.39 	"/>
	<polygon opacity="0.03" points="29.531,42.017 58.35,38.954 28.781,30.004 0,34.591 	"/>
	<polyline opacity="0.03" points="0,7.056 0,32.816 28.781,28.175 28.781,0 	"/>
	<polygon opacity="0.03" points="69.721,133.027 69.721,80.594 81.054,81.837 81.031,127.774 	"/>
</g>
<g id="Layer_2" display="none">
	<polygon display="inline" fill="#6D6D6D" points="2144.807,2187.207 2273.819,2173.941 2273.819,2605.97 2144.807,2579.441 	"/>
	<polygon display="inline" fill="#6D6D6D" points="2431.126,2219.608 2500.831,2239.648 2431.126,2243.621 	"/>
	<polygon display="inline" fill="#6D6D6D" points="2294.696,2178.941 2294.696,2605.97 2329.592,2590.327 2329.592,2345.771 
		2391.155,2352.771 2391.155,2561.02 2412.857,2552.033 2412.857,2213.32 	"/>
	<polygon display="inline" fill="#6D6D6D" points="2128.886,2173.941 2257.898,2159.586 2125.517,2120.096 1996.502,2140.649 	"/>
	<polygon display="inline" fill="#6D6D6D" points="1996.502,2004.604 1996.502,2120.096 2125.517,2099.276 2125.517,1972.972 	"/>
	<polygon display="inline" fill="#D85700" points="2391.155,2560.171 2391.155,2352.771 2477.664,2352.771 2477.664,2572.798 	"/>
</g>
</svg>
